<?xml version="1.0" encoding="UTF-8" standalone="no"?>
<!-- Created with Inkscape (http://www.inkscape.org/) -->

<svg
   xmlns:dc="http://purl.org/dc/elements/1.1/"
   xmlns:cc="http://creativecommons.org/ns#"
   xmlns:rdf="http://www.w3.org/1999/02/22-rdf-syntax-ns#"
   xmlns:svg="http://www.w3.org/2000/svg"
   xmlns="http://www.w3.org/2000/svg"
   xmlns:sodipodi="http://sodipodi.sourceforge.net/DTD/sodipodi-0.dtd"
   xmlns:inkscape="http://www.inkscape.org/namespaces/inkscape"
   width="1370.568"
   height="1370.568"
   viewBox="0 0 362.62944 362.62944"
   version="1.1"
   id="svg8"
   inkscape:version="0.92.4 (5da689c313, 2019-01-14)"
   sodipodi:docname="A63.svg">
  <defs
     id="defs2" />
  <sodipodi:namedview
     id="base"
     pagecolor="#ffffff"
     bordercolor="#666666"
     borderopacity="1.0"
     inkscape:pageopacity="0.0"
     inkscape:pageshadow="2"
     inkscape:zoom="0.39749579"
     inkscape:cx="175.8446"
     inkscape:cy="685.28403"
     inkscape:document-units="mm"
     inkscape:current-layer="layer1"
     showgrid="false"
     inkscape:snap-smooth-nodes="true"
     inkscape:pagecheckerboard="true"
     fit-margin-top="1"
     fit-margin-left="1"
     fit-margin-right="1"
     fit-margin-bottom="1"
     inkscape:snap-intersection-paths="true"
     inkscape:object-nodes="true"
     inkscape:window-width="1920"
     inkscape:window-height="1051"
     inkscape:window-x="-9"
     inkscape:window-y="-9"
     inkscape:window-maximized="1"
     showguides="false"
     inkscape:object-paths="true"
     units="px" />
  <metadata
     id="metadata5">
    <rdf:RDF>
      <cc:Work
         rdf:about="">
        <dc:format>image/svg+xml</dc:format>
        <dc:type
           rdf:resource="http://purl.org/dc/dcmitype/StillImage" />
        <dc:title />
      </cc:Work>
    </rdf:RDF>
  </metadata>
  <g
     inkscape:label="レイヤー 1"
     inkscape:groupmode="layer"
     id="layer1"
     transform="translate(-539.43303,-345.09453)">
    <g
       id="g989"
       transform="translate(-5.1743785,-0.00141721)">
      <g
         id="g939"
         transform="rotate(-45,1125.2354,165.10408)"
         style="fill:#ffffff;fill-opacity:1;stroke:none"
         inkscape:export-xdpi="96"
         inkscape:export-ydpi="96">
        <path
           inkscape:connector-curvature="0"
           id="path935"
           d="m 706.47727,270.52096 c 6.22741,0 13.21034,-6.98293 13.21034,-13.21034 V 19.147957 c 0,-6.227409 -6.98292,-13.2103298 -13.21033,-13.2103298 H 468.3146 c -6.22741,0 -13.21033,6.9829208 -13.21033,13.2103298 V 257.31062 c 0,6.22741 6.98293,13.21034 13.21034,13.21034 z"
           style="opacity:1;fill:#ffffff;fill-opacity:1;fill-rule:nonzero;stroke:none;stroke-width:0.26458332;stroke-linecap:round;stroke-linejoin:round;stroke-miterlimit:4;stroke-dasharray:none;stroke-dashoffset:0;stroke-opacity:1;paint-order:markers fill stroke"
           sodipodi:nodetypes="sssssssss" />
        <path
           sodipodi:nodetypes="cccccsssssssss"
           style="opacity:1;fill:#000000;fill-opacity:1;fill-rule:nonzero;stroke:none;stroke-width:0.37860096;stroke-linecap:round;stroke-linejoin:round;stroke-miterlimit:4;stroke-dasharray:none;stroke-dashoffset:0;stroke-opacity:1;paint-order:markers fill stroke"
           d="M 461.71886,12.552213 V 263.90637 h 251.35415 l 1e-5,-251.354157 z m 231.51042,6.614574 c 6.23629,0 13.22916,6.992883 13.22916,13.229171 V 244.06262 c 0,6.23629 -6.99287,13.22917 -13.22916,13.22917 H 481.5626 c -6.23629,0 -13.22917,-6.99288 -13.22917,-13.22917 V 32.395957 c 0,-6.23629 6.99288,-13.229167 13.22917,-13.229167 z"
           id="path937"
           inkscape:connector-curvature="0" />
      </g>
      <g
         transform="translate(2.5282435)"
         id="g927">
        <path
           style="fill:none;stroke:#000000;stroke-width:13.22916698;stroke-linecap:round;stroke-linejoin:round;stroke-miterlimit:4;stroke-dasharray:none;stroke-opacity:1"
           d="m 749.80646,592.97182 c 0,0 -3.87207,-26.40524 1.33125,-37.94067 4.77544,-10.58685 25.29377,-23.96251 25.29377,-23.96251 0,0 -8.64498,18.41451 -7.32187,27.95627 1.80317,13.00377 19.96877,33.94691 19.96877,33.94691"
           id="path1045"
           inkscape:connector-curvature="0"
           sodipodi:nodetypes="cacac" />
        <path
           style="fill:none;stroke:#000000;stroke-width:13.22916698;stroke-linecap:round;stroke-linejoin:round;stroke-miterlimit:4;stroke-dasharray:none;stroke-opacity:1"
           d="m 776.43148,531.06864 c 0,0 -0.74821,-19.98456 -3.99375,-29.28753 -2.71994,-7.79638 -12.64688,-21.30001 -12.64688,-21.30001"
           id="path1047"
           inkscape:connector-curvature="0"
           sodipodi:nodetypes="cac" />
        <path
           style="fill:none;stroke:#000000;stroke-width:13.22916698;stroke-linecap:round;stroke-linejoin:round;stroke-miterlimit:4;stroke-dasharray:none;stroke-opacity:1"
           d="m 759.79083,480.4811 c 0,0 -12.13547,14.22292 -20.63435,16.64065 -10.3233,2.93673 -31.95003,-3.99376 -31.95003,-3.99376"
           id="path1049"
           inkscape:connector-curvature="0"
           sodipodi:nodetypes="cac" />
        <path
           style="opacity:1;fill:#000000;fill-opacity:1;fill-rule:evenodd;stroke:#000000;stroke-width:6.61499977;stroke-linecap:round;stroke-linejoin:round;stroke-miterlimit:4;stroke-dasharray:none;stroke-dashoffset:0;stroke-opacity:1;paint-order:normal"
           d="m 763.60316,466.65696 c 0,6.7735 -5.49101,12.26452 -12.26451,12.26452 -6.77351,0 -12.26452,-5.49101 -12.26452,-12.26452 z"
           id="path1055"
           inkscape:connector-curvature="0"
           sodipodi:nodetypes="cscc" />
        <path
           style="fill:none;stroke:#000000;stroke-width:6.61458349;stroke-linecap:round;stroke-linejoin:round;stroke-miterlimit:4;stroke-dasharray:none;stroke-opacity:1"
           d="m 641.51463,600.90942 h 163.7585"
           id="path1071"
           inkscape:connector-curvature="0"
           sodipodi:nodetypes="cc" />
        <path
           sodipodi:nodetypes="cac"
           inkscape:connector-curvature="0"
           id="path1073"
           d="m 759.79083,480.4811 c 0,0 -8.0408,16.87918 -15.62433,21.4142 -9.21147,5.50853 -31.89502,4.4116 -31.89502,4.4116"
           style="fill:none;stroke:#000000;stroke-width:13.22916698;stroke-linecap:round;stroke-linejoin:round;stroke-miterlimit:4;stroke-dasharray:none;stroke-opacity:1" />
        <path
           style="fill:none;stroke:#000000;stroke-width:6.61458349;stroke-linecap:round;stroke-linejoin:miter;stroke-miterlimit:4;stroke-dasharray:none;stroke-opacity:1"
           d="M 712.27148,506.3069 686.94633,440.41236"
           id="path1075"
           inkscape:connector-curvature="0"
           sodipodi:nodetypes="cc" />
        <path
           sodipodi:nodetypes="zczcz"
           inkscape:connector-curvature="0"
           id="path1093"
           d="m 688.92074,445.54965 c 19.30423,-8.66275 32.4243,-8.7023 32.4243,-8.7023 -12.44159,-3.33372 -24.40231,-1.03148 -34.39872,3.56501 -9.99641,4.5965 -19.70684,11.0062 -24.39883,21.62479 0,0 7.06902,-7.82474 26.37325,-16.4875 z"
           style="fill:#000000;fill-opacity:1;stroke:#000000;stroke-width:2.64583325;stroke-linecap:round;stroke-linejoin:round;stroke-miterlimit:4;stroke-dasharray:none;stroke-opacity:1" />
        <path
           style="fill:#000000;fill-opacity:1;stroke:#000000;stroke-width:6.61458349;stroke-linecap:round;stroke-linejoin:round;stroke-miterlimit:4;stroke-dasharray:none;stroke-opacity:1"
           d="m 654.42031,552.74476 c -10.11837,13.18651 -12.90569,48.16464 -12.90569,48.16464 h 70.97528 c 0,0 -2.78732,-34.97813 -12.90569,-48.16464 -5.29123,-6.89566 -13.89015,-13.03769 -22.58195,-13.03769 -8.6918,0 -17.29072,6.14203 -22.58195,13.03769 z"
           id="path1095"
           inkscape:connector-curvature="0"
           sodipodi:nodetypes="sccsss" />
        <path
           style="fill:#000000;fill-opacity:1;stroke:#020202;stroke-width:3;stroke-linecap:butt;stroke-linejoin:round;stroke-miterlimit:4;stroke-dasharray:none;stroke-opacity:1"
           d="m 786.14087,460.31853 h -69.60444 l 34.80222,-16.78725 z"
           id="path927"
           inkscape:connector-curvature="0"
           sodipodi:nodetypes="cccc" />
      </g>
    </g>
    <g
       transform="rotate(-180,123.40923,112.73661)"
       id="g838">
      <g
         id="g836"
         transform="rotate(-90,93.738093,75.127977)" />
    </g>
  </g>
</svg>
